TITLE "The Olympus Sound"
PERFORMER "Pugwash"
CATALOG 5060156657348
REM GENRE "Rock"
REM DATE "2012"
REM DISCNUMBER 1
REM TOTALDISCS 1
REM DISCID C80CD50F
FILE "The Olympus Sound.flac" WAVE
  TRACK 01 AUDIO
    TITLE "Answers On a Postcard"
    ISRC GBHMW1100081
    INDEX 01 00:00:00
  TRACK 02 AUDIO
    TITLE "There You Are"
    ISRC GBHMW1100082
    INDEX 01 02:53:66
  TRACK 03 AUDIO
    TITLE "To the Warmth of You"
    ISRC GBHMW1100083
    INDEX 01 06:21:01
  TRACK 04 AUDIO
    TITLE "Fall Down"
    ISRC GBHMW1100084
    INDEX 01 09:33:24
  TRACK 05 AUDIO
    TITLE "Be My Friend Awhile"
    ISRC GBHMW1100085
    INDEX 01 13:41:49
  TRACK 06 AUDIO
    TITLE "Dear Belinda"
    ISRC GBHMW1100086
    INDEX 01 17:53:67
  TRACK 07 AUDIO
    TITLE "15 Kilocycle Tone"
    ISRC GBHMW1100087
    INDEX 01 20:28:64
  TRACK 08 AUDIO
    TITLE "I Don't Like It But I Gotta Do It"
    ISRC GBHMW1100088
    INDEX 01 23:18:15
  TRACK 09 AUDIO
    TITLE "Here We Go 'Round Again"
    ISRC GBHMW1100089
    INDEX 01 26:03:49
  TRACK 10 AUDIO
    TITLE "Such Beauty Thrown Away"
    ISRC GBHMW1100090
    INDEX 01 29:18:04
  TRACK 11 AUDIO
    TITLE "See You Mine (Coda)"
    ISRC GBHMW1100091
    INDEX 01 32:37:66
  TRACK 12 AUDIO
    TITLE "Four Days"
    ISRC GBHMW1100092
    INDEX 01 37:41:41
  TRACK 13 AUDIO
    TITLE "Heal Me (bonus)"
    ISRC GBHMW1100093
    INDEX 01 42:11:41
  TRACK 14 AUDIO
    TITLE "Happy Again (bonus)"
    ISRC GBHMW1100094
    INDEX 01 46:00:69
  TRACK 15 AUDIO
    TITLE "Waltz With Me (bonus)"
    ISRC GBHMW1100095
    INDEX 01 49:38:57
